FFmpeg version SVN-r25716, Copyright (c) 2000-2010 the FFmpeg developers  built on Nov 10 2010 12:23:18 with gcc 4.1.2 20080704 (Red Hat 4.1.2-48)  configuration: --enable-libmp3lame --enable-shared --disable-mmx --arch=x86_64  libavutil     50.33. 0 / 50.33. 0  libavcore      0.12. 1 /  0.12. 1  libavcodec    52.94. 4 / 52.94. 4  libavformat   52.84. 0 / 52.84. 0  libavdevice   52. 2. 2 / 52. 2. 2  libavfilter    1.59. 0 /  1.59. 0  libswscale     0.12. 0 /  0.12. 0[mov,mp4,m4a,3gp,3g2,mj2 @ 0xc2eb4c0] multiple edit list entries, a/v desync might occur, patch welcomeSeems stream 0 codec frame rate differs from container frame rate: 600.00 (600/1) -> 15.00 (15/1)Input #0, mov,mp4,m4a,3gp,3g2,mj2, from '/RAID10/data/converted_video_files/11844.mov':  Duration: 00:00:08.13, start: 0.118333, bitrate: 6775 kb/s    Stream #0.0(eng): Video: svq3, yuvj420p, 400x400, 6771 kb/s, 15 fps, 15 tbr, 600 tbn, 600 tbc[buffer @ 0xc2f2e20] w:400 h:400 pixfmt:yuvj420p[ffsink @ 0xc2f3070] auto-inserting filter 'auto-inserted scaler 0' between the filter 'src' and the filter 'out'[scale @ 0xc2f3390] w:400 h:400 fmt:yuvj420p -> w:400 h:400 fmt:yuv420p flags:0x4Output #0, flv, to '/RAID10/data/converted_video_files/11844.flv':  Metadata:    encoder         : Lavf52.84.0    Stream #0.0(eng): Video: flv, yuv420p, 400x400, q=2-31, 600 kb/s, 1k tbn, 24 tbcStream mapping:  Stream #0.0 -> #0.0Press [q] to stop encodingframe=   41 fps=  0 q=30.4 size=     349kB time=2.71 bitrate=1054.6kbits/s    frame=   91 fps= 88 q=30.3 size=     517kB time=6.04 bitrate= 700.3kbits/s    frame=  122 fps= 87 q=24.8 Lsize=     641kB time=8.12 bitrate= 646.4kbits/s    video:639kB audio:0kB global headers:0kB muxing overhead 0.330431%